<?xml version="1.0" standalone="no"?>
<!DOCTYPE svg PUBLIC "-//W3C//DTD SVG 1.1//EN" "http://www.w3.org/Graphics/SVG/1.1/DTD/svg11.dtd" >
<svg xmlns="http://www.w3.org/2000/svg">
<metadata>Generated by IcoMoon</metadata>
<defs>
<font id="icomoon" horiz-adv-x="1024">
<font-face units-per-em="1024" ascent="960" descent="-64" />
<missing-glyph horiz-adv-x="1024" />
<glyph unicode="&#x20;" horiz-adv-x="512" d="" />
<glyph unicode="&#xe900;" glyph-name="533984" d="M725.333 405.333c-129.365 0-234.667-105.259-234.667-234.667s105.344-234.667 234.667-234.667 234.667 105.259 234.667 234.667-105.301 234.667-234.667 234.667zM868.437 240.896l-170.667-170.667c-4.181-4.139-9.643-6.229-15.104-6.229s-10.923 2.091-15.104 6.229l-85.333 85.333c-8.32 8.32-8.32 21.845 0 30.165s21.845 8.32 30.165 0l70.272-70.229 155.563 155.563c8.32 8.32 21.845 8.32 30.165 0 8.277-8.32 8.363-21.803 0.043-30.165zM256 789.333h384c11.776 0 21.333 9.557 21.333 21.333v42.667c0 35.285-28.672 64-64 64h-75.691c-15.104 26.027-43.051 42.667-73.643 42.667s-58.539-16.64-73.643-42.667h-75.691c-35.243 0-64-28.715-64-64v-42.667c0-11.776 9.557-21.333 21.333-21.333zM448 170.667c0 152.917 124.416 277.333 277.333 277.333 26.624 0 53.291-3.925 79.232-11.648 6.485-2.005 13.483-0.725 18.816 3.328 5.419 4.011 8.576 10.368 8.576 17.109v353.877c0.043 35.285-28.715 64-63.957 64h-42.667c-11.776 0-21.333-9.557-21.333-21.333v-42.667c0-35.285-28.757-64-64-64h-384c-35.328 0-64 28.715-64 64v42.667c0 11.776-9.557 21.333-21.333 21.333h-42.667c-35.328 0-64-28.715-64-64v-810.667c0-35.285 28.672-64 64-64h388.48c0.299 0 0.64-0.043 0.853 0 11.776 0 21.333 9.557 21.333 21.333 0 7.765-4.139 14.507-10.283 18.261-51.84 52.309-80.384 121.429-80.384 195.072z" />
<glyph unicode="&#xe901;" glyph-name="cruise-1" d="M785.067 38.4h-494.933c-9.438 0-17.067-7.646-17.067-17.067s7.629-17.067 17.067-17.067h494.933c9.438 0 17.067 7.646 17.067 17.067s-7.629 17.067-17.067 17.067zM648.533-29.867h-238.933c-9.438 0-17.067-7.646-17.067-17.067s7.629-17.067 17.067-17.067h238.933c9.438 0 17.067 7.646 17.067 17.067s-7.629 17.067-17.067 17.067zM972.8 106.667h-164.045c167.663 178.21 147.763 320.631 146.773 326.929l-1.553 9.83-83.575 31.334v214.289c0 27.068-22.016 49.084-49.084 49.084h-189.85v167.287c0 30.089-24.491 54.579-54.579 54.579h-95.642c-30.089 0-54.579-24.491-54.579-54.579v-167.287h-189.85c-27.068 0-49.084-22.016-49.084-49.084v-214.289l-83.575-31.351-1.553-9.83c-0.973-6.298-20.89-148.719 146.773-326.929h-198.178c-9.438 0-17.067-7.646-17.067-17.067s7.629-17.067 17.067-17.067h921.6c9.438 0 17.067 7.646 17.067 17.067s-7.629 17.084-17.067 17.084zM716.8 669.867h34.133c9.438 0 17.067-7.646 17.067-17.067s-7.629-17.067-17.067-17.067h-34.133c-9.438 0-17.067 7.646-17.067 17.067s7.629 17.067 17.067 17.067zM631.467 669.867h34.133c9.438 0 17.067-7.646 17.067-17.067s-7.629-17.067-17.067-17.067h-34.133c-9.438 0-17.067 7.646-17.067 17.067s7.629 17.067 17.067 17.067zM546.133 669.867h34.133c9.438 0 17.067-7.646 17.067-17.067s-7.629-17.067-17.067-17.067h-34.133c-9.438 0-17.067 7.646-17.067 17.067s7.629 17.067 17.067 17.067zM460.8 669.867h34.133c9.438 0 17.067-7.646 17.067-17.067s-7.629-17.067-17.067-17.067h-34.133c-9.438 0-17.067 7.646-17.067 17.067s7.629 17.067 17.067 17.067zM375.467 669.867h34.133c9.438 0 17.067-7.646 17.067-17.067s-7.629-17.067-17.067-17.067h-34.133c-9.438 0-17.067 7.646-17.067 17.067s7.629 17.067 17.067 17.067zM290.133 669.867h34.133c9.438 0 17.067-7.646 17.067-17.067s-7.629-17.067-17.067-17.067h-34.133c-9.438 0-17.067 7.646-17.067 17.067s7.629 17.067 17.067 17.067zM645.973 106.667l-28.962 202.24c-0.188 1.468-1.468 2.56-2.935 2.56h-170.035c-1.468 0-2.731-1.092-2.935-2.526l-28.894-202.274h-34.475l29.577 207.070c2.594 18.159 18.364 31.863 36.745 31.863h170.035c18.364 0 34.15-13.705 36.727-31.881l29.594-207.053h-34.441zM528.896 480.956l-318.208-117.231c-1.946-0.717-3.925-1.058-5.888-1.058-6.946 0-13.466 4.267-16.009 11.179-3.243 8.841 1.263 18.654 10.121 21.914l330.325 121.702 313.225-121.805c8.789-3.413 13.141-13.312 9.711-22.084-3.396-8.789-13.329-13.141-22.084-9.728l-301.193 117.111z" />
<glyph unicode="&#xe902;" glyph-name="download-1" d="M512 576c11.782 0 21.333 9.551 21.333 21.333s-9.551 21.333-21.333 21.333v0c-94.257 0-170.667-76.41-170.667-170.667s76.41-170.667 170.667-170.667c94.257 0 170.667 76.41 170.667 170.667v0c0 11.782-9.551 21.333-21.333 21.333s-21.333-9.551-21.333-21.333v0c0-70.692-57.308-128-128-128s-128 57.308-128 128c0 70.692 57.308 128 128 128v0zM919.040 574.708c-2.883 8.609-10.874 14.702-20.288 14.702-11.791 0-21.349-9.558-21.349-21.349 0-2.176 0.326-4.276 0.931-6.254l-0.040 0.151c11.215-34.498 17.681-74.194 17.681-115.401 0-212.875-172.569-385.444-385.444-385.444s-385.444 172.569-385.444 385.444c0 212.875 172.569 385.444 385.444 385.444 41.217 0 80.923-6.469 118.157-18.448l-2.729 0.759c2.023-0.701 4.354-1.106 6.78-1.106 11.782 0 21.333 9.551 21.333 21.333 0 9.655-6.414 17.812-15.213 20.442l-0.151 0.039c-38.296 12.443-82.362 19.618-128.103 19.618-236.412 0-428.062-191.65-428.062-428.062s191.65-428.062 428.062-428.062c236.412 0 428.062 191.65 428.062 428.062 0 45.752-7.178 89.827-20.468 131.161l0.842-3.030zM552.625 722.375c0.001 0.059 0.001 0.129 0.001 0.199 0 12.131-9.362 22.076-21.255 23.003l-0.079 0.005c-6.375 0.563-12.75 1.084-19.292 1.084-164.949 0-298.667-133.718-298.667-298.667s133.718-298.667 298.667-298.667c164.949 0 298.667 133.718 298.667 298.667v0c0 8.137-0.515 16.153-1.513 24.018l0.097-0.935c-1.015 11.016-10.211 19.576-21.407 19.576-11.87 0-21.492-9.622-21.492-21.492 0-1.979 0.267-3.895 0.768-5.714l-0.035 0.151c0.458-5.167 0.916-10.313 0.916-15.604 0-141.385-114.615-256-256-256s-256 114.615-256 256c0 141.385 114.615 256 256 256v0c5.292 0 10.417-0.479 15.583-0.916l4-0.354c0.262-0.012 0.569-0.019 0.878-0.019 10.962 0 19.882 8.745 20.164 19.639l0.001 0.026zM640 682.667v-76.5l-143.084-143.083c-3.975-3.879-6.441-9.289-6.441-15.275 0-11.782 9.551-21.333 21.333-21.333 5.986 0 11.396 2.465 15.271 6.436l143.087 143.088h76.5c0.001 0 0.003 0 0.004 0 5.89 0 11.221 2.388 15.079 6.249l128 128c3.86 3.86 6.247 9.193 6.247 15.084 0 11.781-9.55 21.332-21.331 21.333h-64v64c-0.001 11.781-9.552 21.331-21.333 21.331-5.89 0-11.223-2.387-15.084-6.247l-128-128c-3.861-3.859-6.25-9.191-6.25-15.080 0-0.001 0-0.002 0-0.004v0zM682.667 673.834l85.333 85.333v-33.834c0-0.004 0-0.008 0-0.013 0-11.775 9.546-21.321 21.321-21.321 0.005 0 0.009 0 0.014 0h33.833l-85.333-85.333h-55.167z" />
<glyph unicode="&#xe903;" glyph-name="download-3" d="M1017.856 254.464c-2.048 3.072-47.104 70.656-164.864 44.032-69.632-16.384-125.952-33.792-156.672-45.056-3.072 27.648-26.624 50.176-55.296 51.2 0 0-429.056 83.968-429.056 83.968v24.576c0 9.216-7.168 16.384-16.384 16.384h-175.104c-9.216 0-16.384-7.168-16.384-16.384v-335.872c0-9.216 7.168-16.384 16.384-16.384h175.104c9.216 0 16.384 7.168 16.384 16.384v35.84c65.536-26.624 252.928-97.28 350.208-97.28 117.76 0 437.248 206.848 450.56 215.040 8.192 5.12 10.24 15.36 5.12 23.552zM37.888 94.72v301.056h141.312v-21.504c0 0 0 0 0 0v-236.544c0 0 0 0 0 0v-43.008h-141.312zM562.176 48.64c-97.28 0-302.080 80.896-350.208 99.328v205.824c0 0 425.984-82.944 425.984-82.944 14.336 0 25.6-11.264 25.6-25.6s-11.264-25.6-25.6-25.6h-238.592c-9.216 0-16.384-7.168-16.384-16.384s7.168-16.384 16.384-16.384h239.616c20.48 0 38.912 11.264 50.176 27.648 18.432 7.168 83.968 31.744 173.056 52.224 63.488 14.336 100.352-4.096 116.736-17.408-68.608-44.032-322.56-200.704-416.768-200.704zM927.744 718.336v0c-2.048 6.144-7.168 10.24-13.312 11.264l-147.456 21.504-1.024 1.024-65.536 133.12c-3.072 5.12-8.192 9.216-14.336 9.216s-11.264-3.072-14.336-9.216l-66.56-134.144-147.456-21.504c-6.144-1.024-11.264-5.12-13.312-11.264s0-12.288 4.096-16.384l106.496-104.448-25.6-147.456c-1.024-6.144 1.024-12.288 6.144-15.36s11.264-4.096 17.408-1.024l132.096 69.632 134.144-70.656c5.12-3.072 12.288-2.048 17.408 1.024 5.12 4.096 7.168 9.216 6.144 15.36l-25.6 147.456 106.496 104.448c5.12 5.12 6.144 11.264 4.096 17.408zM788.48 613.888c-4.096-4.096-5.12-9.216-5.12-14.336l21.504-123.904-110.592 58.368c-4.096 2.048-10.24 2.048-15.36 0l-110.592-58.368 21.504 123.904c1.024 5.12-1.024 10.24-5.12 14.336l-90.112 87.040 123.904 18.432c5.12 1.024 10.24 4.096 12.288 9.216l55.296 112.64 55.296-112.64c2.048-5.12 7.168-8.192 12.288-9.216l123.904-18.432-89.088-87.040z" />
<glyph unicode="&#xe904;" glyph-name="download-4-1" d="M664.176 624h-104.624l-32.336 99.504c-2.165 6.444-8.15 11.004-15.2 11.004s-13.035-4.56-15.167-10.891l-0.033-0.113-32.368-99.504h-104.624c-0.001 0-0.002 0-0.003 0-8.837 0-16-7.163-16-16 0-5.302 2.579-10.001 6.55-12.913l0.045-0.031 84.64-61.488-32.32-99.504c-0.497-1.477-0.784-3.178-0.784-4.946 0-8.837 7.163-16 16-16 3.536 0 6.804 1.147 9.452 3.089l-0.045-0.031 84.64 61.488 84.64-61.488c2.604-1.911 5.872-3.058 9.408-3.058 8.837 0 16 7.163 16 16 0 1.768-0.287 3.469-0.816 5.059l0.033-0.113-32.32 99.504 84.64 61.488c4.016 2.943 6.595 7.642 6.595 12.944 0 8.837-7.163 16-16 16-0.001 0-0.002 0-0.003 0v0zM560.72 552.624c-4.017-2.943-6.596-7.642-6.596-12.945 0-1.773 0.288-3.478 0.821-5.072l-0.033 0.113 20.704-63.712-54.208 39.392c-2.604 1.911-5.872 3.058-9.408 3.058s-6.804-1.147-9.453-3.090l0.045 0.031-54.208-39.376 20.704 63.712c0.5 1.481 0.788 3.186 0.788 4.959 0 5.302-2.579 10.002-6.551 12.913l-0.045 0.031-54.208 39.36h67.008c7.069 0 13.067 4.585 15.183 10.943l0.033 0.113 20.704 63.728 20.704-63.728c2.149-6.471 8.147-11.056 15.216-11.056h67.008zM512 864c-167.895 0-304-136.105-304-304s136.105-304 304-304c167.895 0 304 136.105 304 304v0c-0.191 167.818-136.182 303.809-303.982 304h-0.018zM512 288c-150.221 0-272 121.779-272 272s121.779 272 272 272c150.221 0 272-121.779 272-272v0c-0.173-150.152-121.848-271.827-271.983-272h-0.017zM987.952 130.352l-193.776 193.76c53.386 63.437 85.824 146.041 85.824 236.222 0 203.241-164.759 368-368 368s-368-164.759-368-368c0-90.18 32.438-172.785 86.282-236.781l-0.458 0.559-193.776-193.76c-2.896-2.896-4.688-6.896-4.688-11.315 0-7.732 5.485-14.184 12.777-15.675l0.103-0.018 102.64-20.464 20.48-102.656c1.514-7.388 7.963-12.866 15.69-12.866 4.412 0 8.408 1.786 11.302 4.675v0l230.608 230.4c26.136-6.669 56.141-10.496 87.040-10.496s60.903 3.827 89.566 11.034l-2.526-0.538 230.608-230.4c2.894-2.888 6.889-4.674 11.302-4.674 7.728 0 14.176 5.478 15.672 12.763l0.018 0.103 20.48 102.656 102.64 20.464c7.395 1.509 12.88 7.96 12.88 15.693 0 4.419-1.791 8.42-4.688 11.315v0zM192.896 15.808l-16.72 83.808c-1.305 6.338-6.219 11.247-12.457 12.526l-0.103 0.018-83.792 16.72 171.568 171.568c38.034-38.224 84.373-68.147 136.087-86.837l2.569-0.811zM176 560c0 185.568 150.432 336 336 336s336-150.432 336-336c0-185.568-150.432-336-336-336v0c-185.48 0.219-335.782 150.521-336 335.979v0.021zM860.384 112.16c-6.341-1.297-11.255-6.206-12.542-12.441l-0.018-0.103-16.72-83.808-197.152 196.992c54.28 19.487 100.619 49.394 138.643 87.587l0.013 0.013 171.568-171.52z" />
<glyph unicode="&#xe905;" glyph-name="download-4" d="M664.176 624h-104.624l-32.336 99.504c-2.165 6.444-8.15 11.004-15.2 11.004s-13.035-4.56-15.167-10.891l-0.033-0.113-32.368-99.504h-104.624c-0.001 0-0.002 0-0.003 0-8.837 0-16-7.163-16-16 0-5.302 2.579-10.001 6.55-12.913l0.045-0.031 84.64-61.488-32.32-99.504c-0.497-1.477-0.784-3.178-0.784-4.946 0-8.837 7.163-16 16-16 3.536 0 6.804 1.147 9.452 3.089l-0.045-0.031 84.64 61.488 84.64-61.488c2.604-1.911 5.872-3.058 9.408-3.058 8.837 0 16 7.163 16 16 0 1.768-0.287 3.469-0.816 5.059l0.033-0.113-32.32 99.504 84.64 61.488c4.016 2.943 6.595 7.642 6.595 12.944 0 8.837-7.163 16-16 16-0.001 0-0.002 0-0.003 0v0zM560.72 552.624c-4.017-2.943-6.596-7.642-6.596-12.945 0-1.773 0.288-3.478 0.821-5.072l-0.033 0.113 20.704-63.712-54.208 39.392c-2.604 1.911-5.872 3.058-9.408 3.058s-6.804-1.147-9.453-3.090l0.045 0.031-54.208-39.376 20.704 63.712c0.5 1.481 0.788 3.186 0.788 4.959 0 5.302-2.579 10.002-6.551 12.913l-0.045 0.031-54.208 39.36h67.008c7.069 0 13.067 4.585 15.183 10.943l0.033 0.113 20.704 63.728 20.704-63.728c2.149-6.471 8.147-11.056 15.216-11.056h67.008zM512 864c-167.895 0-304-136.105-304-304s136.105-304 304-304c167.895 0 304 136.105 304 304v0c-0.191 167.818-136.182 303.809-303.982 304h-0.018zM512 288c-150.221 0-272 121.779-272 272s121.779 272 272 272c150.221 0 272-121.779 272-272v0c-0.173-150.152-121.848-271.827-271.983-272h-0.017zM987.952 130.352l-193.776 193.76c53.386 63.437 85.824 146.041 85.824 236.222 0 203.241-164.759 368-368 368s-368-164.759-368-368c0-90.18 32.438-172.785 86.282-236.781l-0.458 0.559-193.776-193.76c-2.896-2.896-4.688-6.896-4.688-11.315 0-7.732 5.485-14.184 12.777-15.675l0.103-0.018 102.64-20.464 20.48-102.656c1.514-7.388 7.963-12.866 15.69-12.866 4.412 0 8.408 1.786 11.302 4.675v0l230.608 230.4c26.136-6.669 56.141-10.496 87.040-10.496s60.903 3.827 89.566 11.034l-2.526-0.538 230.608-230.4c2.894-2.888 6.889-4.674 11.302-4.674 7.728 0 14.176 5.478 15.672 12.763l0.018 0.103 20.48 102.656 102.64 20.464c7.395 1.509 12.88 7.96 12.88 15.693 0 4.419-1.791 8.42-4.688 11.315v0zM192.896 15.808l-16.72 83.808c-1.305 6.338-6.219 11.247-12.457 12.526l-0.103 0.018-83.792 16.72 171.568 171.568c38.034-38.224 84.373-68.147 136.087-86.837l2.569-0.811zM176 560c0 185.568 150.432 336 336 336s336-150.432 336-336c0-185.568-150.432-336-336-336v0c-185.48 0.219-335.782 150.521-336 335.979v0.021zM860.384 112.16c-6.341-1.297-11.255-6.206-12.542-12.441l-0.018-0.103-16.72-83.808-197.152 196.992c54.28 19.487 100.619 49.394 138.643 87.587l0.013 0.013 171.568-171.52z" />
<glyph unicode="&#xe906;" glyph-name="download-5" d="M613.089 671.16c180.664 0 327.639-146.985 327.639-327.639 0-180.664-146.985-327.639-327.639-327.639-180.664 0-327.639 146.985-327.639 327.639s146.975 327.639 327.639 327.639zM613.089 701.921c-197.939 0-358.4-160.461-358.4-358.4s160.461-358.4 358.4-358.4c197.939 0 358.4 160.461 358.4 358.4 0 197.929-160.461 358.4-358.4 358.4v0zM613.089 558.316c118.436 0 214.794-96.358 214.794-214.794s-96.358-214.794-214.794-214.794c-118.436 0-214.794 96.358-214.794 214.794s96.358 214.794 214.794 214.794zM613.089 589.281c-135.731 0-245.76-110.029-245.76-245.76s110.029-245.76 245.76-245.76c135.731 0 245.76 110.029 245.76 245.76 0 135.721-110.029 245.76-245.76 245.76v0zM696.996 773.356v-15.667h-167.813v15.667h167.813zM698.86 805.939h-171.54c-16.896 0-30.72-13.824-30.72-30.72v-19.395c0-16.896 13.824-30.72 30.72-30.72h171.53c16.896 0 30.72 13.824 30.72 30.72v19.395c0.010 16.896-13.814 30.72-30.71 30.72v0zM640.614 877.773v-19.395h-55.040v19.395h55.040zM640.614 908.493h-55.040c-16.896 0-30.72-13.824-30.72-30.72v-19.395c0-16.896 13.824-30.72 30.72-30.72h55.040c16.896 0 30.72 13.824 30.72 30.72v19.395c0 16.896-13.824 30.72-30.72 30.72v0zM613.089 364.001c11.295 0 20.48-9.185 20.48-20.48s-9.185-20.48-20.48-20.48c-11.295 0-20.48 9.185-20.48 20.48s9.185 20.48 20.48 20.48zM613.089 394.721c-28.283 0-51.2-22.927-51.2-51.2 0-28.283 22.917-51.2 51.2-51.2 28.273 0 51.2 22.917 51.2 51.2 0 28.273-22.927 51.2-51.2 51.2v0zM613.089 367.647v0c-10.312 0-18.749 8.438-18.749 18.749v123.208c0 10.312 8.438 18.749 18.749 18.749v0c10.312 0 18.749-8.438 18.749-18.749v-123.197c0-10.322-8.438-18.76-18.749-18.76zM632.146 343.562v0c0 10.312 8.438 18.749 18.749 18.749h64.901c10.312 0 18.749-8.438 18.749-18.749v0c0-10.312-8.438-18.749-18.749-18.749h-64.901c-10.312 0-18.749 8.438-18.749 18.749zM159.949 583.7v0.973c0 8.182 6.697 14.868 14.868 14.868h123.853c8.182 0 14.868-6.687 14.868-14.868v-0.973c0-8.182-6.697-14.868-14.868-14.868h-123.843c-8.182 0-14.879 6.687-14.879 14.868zM118.723 582.257v3.871c0 7.383 6.042 13.425 13.425 13.425h3.871c7.383 0 13.425-6.042 13.425-13.425v-3.871c0-7.383-6.042-13.425-13.425-13.425h-3.871c-7.383 0-13.425 6.031-13.425 13.425zM97.874 464.548v0c0 8.448 6.912 15.36 15.36 15.36h122.88c8.448 0 15.36-6.912 15.36-15.36v0c0-8.448-6.912-15.36-15.36-15.36h-122.88c-8.448 0-15.36 6.912-15.36 15.36zM53.115 463.084v2.918c0 7.68 6.226 13.906 13.906 13.906h2.918c7.68 0 13.906-6.226 13.906-13.906v-2.918c0-7.68-6.226-13.906-13.906-13.906h-2.918c-7.68 0.010-13.906 6.236-13.906 13.906zM94.28 343.388v3.031c0 7.619 6.226 13.844 13.844 13.844h105.431c7.619 0 13.844-6.226 13.844-13.844v-3.031c0-7.619-6.226-13.844-13.844-13.844h-105.421c-7.619 0-13.855 6.236-13.855 13.844zM53.033 343.173v3.461c0 7.496 6.134 13.629 13.629 13.629h3.461c7.496 0 13.629-6.134 13.629-13.629v-3.461c0-7.496-6.134-13.629-13.629-13.629h-3.461c-7.496 0-13.629 6.134-13.629 13.629zM97.874 225.26v0c0 8.448 6.912 15.36 15.36 15.36h122.88c8.448 0 15.36-6.912 15.36-15.36v0c0-8.448-6.912-15.36-15.36-15.36h-122.88c-8.448 0-15.36 6.912-15.36 15.36zM53.115 223.805v2.918c0 7.68 6.226 13.906 13.906 13.906h2.918c7.68 0 13.906-6.226 13.906-13.906v-2.918c0-7.68-6.226-13.906-13.906-13.906h-2.918c-7.68 0-13.906 6.226-13.906 13.906zM154.225 105.134v0.973c0 8.182 6.697 14.868 14.868 14.868h123.853c8.182 0 14.868-6.687 14.868-14.868v-0.973c0-8.182-6.697-14.868-14.868-14.868h-123.843c-8.182 0-14.879 6.687-14.879 14.868zM112.998 103.69v3.871c0 7.383 6.042 13.425 13.425 13.425h3.871c7.383 0 13.425-6.042 13.425-13.425v-3.871c0-7.383-6.042-13.425-13.425-13.425h-3.871c-7.383 0-13.425 6.042-13.425 13.425z" />
<glyph unicode="&#xe907;" glyph-name="download-6" d="M893.896 446.162c-52.41-227.38-181.413-388.065-383.514-477.701-202.1 89.636-331.104 250.321-383.514 477.701-33.275 144.332-23.49 271.701-19.28 310.313 208.11 21.68 362.32 135.23 402.794 167.833 40.474-32.603 194.684-146.153 402.784-167.833 4.22-38.612 14.005-165.981-19.27-310.313zM942.376 773.087c-1.086 7.085-6.878 12.505-14.015 13.115-234.424 20.004-406.032 168.453-407.738 169.953-5.854 5.13-14.626 5.13-20.48 0-1.707-1.5-173.315-149.949-407.738-169.953-7.147-0.61-12.929-6.030-14.015-13.115-0.962-6.227-22.849-154.748 17.998-332.862 37.898-165.257 139.398-386.648 407.821-502.929 1.976-0.859 4.075-1.283 6.175-1.283s4.199 0.424 6.175 1.283c268.422 116.281 369.923 337.672 407.811 502.929 40.857 178.114 18.96 326.635 18.008 332.862zM510.381 93.727c-323.853 144.994-304.542 510.738-297.591 581.384 151.045 16.694 263.851 97.332 297.591 124.038 33.74-26.707 146.566-107.344 297.591-124.038 7.044-70.615 26.676-436.224-297.591-581.384zM823.249 704.786c-173.904 14.843-301.366 125.011-302.628 126.128-5.854 5.13-14.626 5.13-20.48 0-1.262-1.117-128.724-111.285-302.628-126.128-7.137-0.6-12.929-6.030-14.015-13.105-0.703-4.603-65.722-461.721 320.709-629.139 1.976-0.859 4.075-1.283 6.175-1.283s4.199 0.424 6.175 1.283c386.431 167.419 321.412 624.537 320.709 629.139-1.086 7.075-6.878 12.505-14.015 13.105zM659.35 510.061l-159.485-156.227c-12.071-11.802-32.778-11.833-44.87-0.103l-87.423 84.971c-6.154 5.968-9.609 13.984-9.723 22.559-0.124 8.585 3.093 16.694 9.082 22.838 6.289 6.475 14.667 9.733 23.056 9.733 8.068 0 16.156-3.010 22.373-9.061l54.075-52.565c6.030-5.875 15.639-5.875 21.669 0.041l126.283 123.707c12.671 12.391 33.058 12.154 45.439-0.465 5.999-6.134 9.257-14.233 9.175-22.807-0.093-8.585-3.517-16.612-9.65-22.621zM592.677 578.11l-115.464-113.105-43.225 42.015c-24.969 24.255-65.029 23.676-89.305-1.283-11.76-12.102-18.101-28.051-17.853-44.911 0.228-16.87 7.023-32.634 19.115-44.384l87.423-84.971c11.874-11.512 27.503-17.853 44.011-17.853 16.622 0 32.313 6.403 44.208 18.049l159.485 156.217c12.050 11.812 18.784 27.596 18.96 44.466 0.165 16.87-6.237 32.799-18.049 44.849-24.369 24.876-64.419 25.279-89.305 0.91z" />
<glyph unicode="&#xe908;" glyph-name="download-7" d="M732.2 326.4c96.4 114.4 89.2 283.4-16.6 389.2-112.2 112.2-295 112.2-407.2 0-105.8-105.8-113-274.8-16.6-389.2l24.4 20.6c-35.4 42-56.4 94.2-59.8 149h31.6v32h-31.4c3.4 56.8 25.8 110.8 63.6 153.4l20.6-20.6 22.6 22.6-20.8 20.6c42.6 37.6 96.6 60 153.4 63.4v-31.4h32v31.4c56.8-3.4 110.8-25.8 153.4-63.4l-20.6-20.6 22.6-22.6 20.6 20.6c37.6-42.6 60-96.6 63.6-153.4h-31.6v-32h31.4c-3.4-54.8-24.2-107-59.8-149l24.6-20.6zM928 464.2v95.6l-66.8 21.8-12 44.8 46.8 52.2-47.8 82.8-68.6-14.6-32.8 32.8 14.6 68.6-82.8 47.8-52.2-46.8-44.8 12-21.8 66.8h-95.6l-21.8-66.8-44.8-12-52.2 46.8-82.8-47.8 14.6-68.6-32.8-32.8-68.6 14.6-47.8-82.8 46.8-52.2-12-44.8-66.8-21.8v-95.6l66.8-21.8 12-44.8-46.8-52.2 42-72.6 27.8 16-30.4 52.6 42.8 47.8-21 78.2-61.2 20v49.2l61.2 20 21 78.2-42.8 47.8 24.6 42.6 62.8-13.2 57.2 57.2-13.2 62.8 42.6 24.6 47.8-42.8 78.2 21 20 61.2h49.2l20-61.2 78.2-21 47.8 42.8 42.6-24.6-13.2-62.8 57.2-57.2 62.8 13.2 24.6-42.6-42.8-47.8 21-78.2 61.2-20v-49.2l-61.2-20-21-78.2 42.8-47.8-30.4-52.6 27.8-16 42 72.6-46.8 52.2 12 44.8zM761.4 288.8l-183.8 42.8c66.6 26.8 110.2 91.4 110.2 163.2v26c0 26.6-6 52.8-17.6 76.8l-28.8-14c9.6-19.6 14.4-41 14.4-62.8v-26c0.2-67-46-125.2-111.2-140.2l-32.8-7.6-32.8 7.6c-65.2 15-111.4 73.2-111.2 140.2v26c0 79.6 64.6 144 144.2 144 25.2 0 50-6.6 71.8-19.2l16 27.8c-84.2 48.6-191.8 19.8-240.4-64.4-15.4-26.8-23.6-57-23.6-88v-26c0-71.8 43.6-136.4 110.2-163.2l-183.8-42.8c-50.8-11.6-86.8-57-86.6-109v-212h32v211.8c-0.2 37.2 25.6 69.6 61.8 78l242.6 56.4 242.2-56.6c36.2-8.4 62-40.6 61.8-78v-211.6h32v211.8c0.2 52.2-35.8 97.4-86.6 109zM644.6 667.4l-112-112c-24 11.4-52.6 1.4-64-22.6s-1.4-52.6 22.6-64c24-11.4 52.6-1.4 64 22.6 6.2 13 6.2 28.4 0 41.4l112 112-22.6 22.6zM512 496c-8.8 0-16 7.2-16 16s7.2 16 16 16 16-7.2 16-16c0-8.8-7.2-16-16-16zM304 160h32v-192h-32v192zM688 160h32v-192h-32v192zM496 272h32v-304h-32v304zM560 160h96v-32h-96v32z" />
<glyph unicode="&#xe909;" glyph-name="Phone21" d="M669.056-72.192c-151.072 0-319.584 72.704-456.288 209.088-218.56 217.984-277.824 521.312-137.824 705.536l50.944-38.72c-118.688-156.256-60.704-429.248 132.096-621.536 192.416-192 462.016-246.4 613.696-123.808l40.256-49.792c-67.488-54.496-152.032-80.768-242.88-80.768zM969.344 83.52l-241.888 242.656-43.488-43.616c-45.76-45.952-106.656-71.296-171.424-71.296-64.8 0-125.728 25.312-171.488 71.296-94.496 94.72-94.496 248.928 0 343.744l43.616 43.744-242.016 242.848 45.312 45.184 287.072-288-88.672-88.928c-69.664-69.888-69.664-183.52 0-253.376 33.728-33.856 78.528-52.48 126.176-52.48 47.616 0 92.448 18.656 126.080 52.448l88.832 89.088 287.2-288.128-45.312-45.184z" />
<glyph unicode="&#xe90a;" glyph-name="phone-call-1" d="M822.996-64c-42.605 0-94.062 10.677-150.65 32.031-124.061 46.772-259.040 139.215-380.069 260.245-121.064 121.064-213.507 256.077-260.314 380.138-42.536 112.798-42.639 205.379-0.241 247.742 6.096 6.096 12.296 12.64 18.702 19.391 38.679 40.676 82.386 86.45 140.317 84.383 39.918-1.653 78.597-26.452 118.206-75.738 117.034-145.553 64.269-197.422 3.203-257.559l-10.78-10.677c-9.988-9.988-28.863-56.244 146.724-231.83 57.312-57.312 106.185-99.262 145.243-124.646 24.592-15.981 68.574-40.16 86.622-22.112l10.849 10.953c60.067 60.928 111.937 113.521 257.386-3.41 49.287-39.608 74.051-78.253 75.704-118.24 2.377-57.897-43.742-101.708-84.452-140.352-6.716-6.406-13.26-12.606-19.356-18.668-21.044-21.079-54.694-31.652-97.092-31.652zM186.608 925.558c-41.158 0-78.321-39.126-111.214-73.741-6.613-6.957-13.019-13.708-19.322-20.011-31.583-31.549-28.38-114.451 8.128-211.268 45.119-119.583 134.772-250.257 252.461-367.946 117.654-117.62 248.259-207.273 367.877-252.358 96.817-36.578 179.719-39.677 211.234-8.163 6.303 6.303 13.054 12.709 20.011 19.288 35.372 33.616 75.497 71.709 73.741 113.969-1.205 29.035-22.353 60.274-62.857 92.822-121.202 97.471-155.093 63.064-211.303 6.062l-11.021-11.125c-26.865-26.899-70.503-20.941-129.744 17.566-41.090 26.727-91.857 70.193-150.822 129.193-145.725 145.69-192.325 234.861-146.724 280.566l10.987 10.849c57.14 56.21 91.616 90.135-5.89 211.406-32.617 40.47-63.821 61.617-92.856 62.857-0.895 0.034-1.791 0.034-2.686 0.034z" />
<glyph unicode="&#xe90b;" glyph-name="Plaine1" d="M687.328-56.864l-271.328 244.32v-79.744l10.336 10.016 44.576-45.888-118.912-115.552v374.944l304.672-274.368 253.024 787.168-786.624-280.928 168.832-164.544 325.92 246.72 38.624-51.040-369.792-279.936-281.728 274.592 1005.376 359.072z" />
<glyph unicode="&#xe90c;" glyph-name="sea-ship-with-containers" d="M1024 386.311l-120.877-251.916c-15.119-29.308-45.34-47.721-78.319-47.721h-712.742c-13.135 0-21.655 13.849-15.731 25.575l0.3 0.594c9.668 19.14 3.932 42.471-13.509 54.941l-0.986 0.706c-40.486 28.955-64.509 75.671-64.509 125.445v57.125l634.525 0.353c0 19.275 15.624 34.898 34.896 34.898h336.953zM616.898 597.819h-123.379c-9.735 0-17.626-7.891-17.626-17.626v-193.882c0-9.735 7.891-17.627 17.626-17.627h123.379c9.733 0 17.626 7.892 17.626 17.627v193.882c0.002 9.735-7.891 17.626-17.626 17.626zM828.406 527.316h-141.004c-9.733 0-17.626-7.891-17.626-17.626v-70.5c0-9.735 7.892-17.627 17.626-17.627h141.004c9.735 0 17.626 7.892 17.626 17.627v70.5c0 9.735-7.891 17.626-17.626 17.626zM282.010 368.687h141.004c9.735 0 17.626 7.892 17.626 17.624v141.006c0 9.735-7.891 17.626-17.626 17.626h-141.004c-9.735 0-17.626-7.891-17.626-17.626v-141.006c0.002-9.733 7.892-17.624 17.626-17.624zM272.991 633.071l-43.856-35.253v-229.132h-176.259v229.132h-52.877v35.253h123.379v51.11h-45.565v20.574h45.565v104.572h17.626v-104.572h45.566v-20.574h-45.566v-51.11h131.987zM197.292 488.053h-57.357v-52.634h57.357v52.634zM197.292 572.401h-57.357v-52.636h57.357v52.636z" />
<glyph unicode="&#xe90d;" glyph-name="sfgb67" d="M50.453 181.984c0 6.208 0.651 12.267 1.909 18.112h-22.293v94.859l666.933-0.021v-33.931h-54.048v-18.848h112.256v22.976h227.84l-8.747-62.336h8.981v-58.688l-59.915-8v18.645h-17.323c-11.403-34.133-43.648-58.741-81.589-58.741-38.752 0-71.541 25.653-82.293 60.907h-83.424c-10.752-35.253-43.541-60.907-82.283-60.907-47.467 0-86.005 38.517-86.005 85.973 0 31.029 16.469 58.229 41.141 73.355v5.664h-65.813v-104.096h-36.725v43.189h-40.512c1.259-5.845 1.92-11.904 1.92-18.112 0-47.456-38.539-85.973-86.005-85.973-41.109 0-75.52 28.875-84 67.435-8.491-38.56-42.901-67.435-84-67.435-47.467 0-86.005 38.517-86.005 85.973zM176.331 181.995c0 22.016-17.867 39.893-39.883 39.893s-39.883-17.877-39.883-39.893c0-22.016 17.867-39.893 39.883-39.893s39.883 17.877 39.883 39.893zM344.331 181.995c0 22.016-17.867 39.893-39.883 39.893s-39.883-17.877-39.883-39.893c0-22.016 17.867-39.893 39.883-39.893s39.883 17.877 39.883 39.893zM616.331 181.995c0 22.016-17.867 39.893-39.883 39.893s-39.883-17.877-39.883-39.893c0-22.016 17.867-39.893 39.883-39.893s39.883 17.877 39.883 39.893zM864.331 181.995c0 22.016-17.867 39.893-39.883 39.893s-39.883-17.877-39.883-39.893c0-22.016 17.867-39.893 39.883-39.893s39.883 17.877 39.883 39.893zM733.536 282.752v274.144h21.685v21.909h156.107l39.925-37.675 7.264-40.245h-20.128l8-110.432h32.064l4.832-26.752v-80.949h-249.749zM30.069 313.771v346.613h666.933v-346.613h-201.867v14.357h-51.083v-14.357h-156.917v14.357h-51.083v-14.357h-205.984zM87.456 348.821v276.512h-23.84v-276.512h23.84zM139.819 348.821v276.512h-23.84v-276.512h23.84zM192.181 348.821v276.512h-23.84v-276.512h23.84zM244.544 348.821v276.512h-23.84v-276.512h23.84zM296.907 348.821v276.512h-23.84v-276.512h23.84zM349.269 348.821v276.512h-23.84v-276.512h23.84zM401.632 348.821v276.512h-23.84v-276.512h23.84zM453.995 348.821v276.512h-23.84v-276.512h23.84zM506.357 348.821v276.512h-23.84v-276.512h23.84zM558.72 348.821v276.512h-23.84v-276.512h23.84zM611.083 348.821v276.512h-23.84v-276.512h23.84zM663.456 348.821v276.512h-23.84v-276.512h23.84zM931.371 395.211l-8 105.675h-82.656v-97.675l55.52-4.907 0.011 41.227h21.941l-0.011-43.157 13.195-1.163z" />
<glyph unicode="&#xe90e;" glyph-name="warehouse-1" d="M1012.532 616.252l-490.657 255.996c-6.208 3.208-13.542 3.208-19.75 0l-490.657-255.996c-8.708-4.542-13.188-14.458-10.854-24 2.354-9.542 10.896-16.25 20.73-16.25h21.334v-533.325c0-11.792 9.542-21.334 21.334-21.334h127.998c11.792 0 21.334 9.542 21.334 21.334v490.659h597.324v-490.657c0-11.792 9.542-21.334 21.334-21.334h127.998c11.792 0 21.334 9.542 21.334 21.334v533.323h21.334c9.834 0 18.376 6.708 20.73 16.25 2.326 9.542-2.154 19.458-10.862 24zM746.663 320.007h-85.333c-11.792 0-21.334-9.542-21.334-21.334v-85.333c0-11.77-9.562-21.334-21.334-21.334-11.77 0-21.334 9.562-21.334 21.334v85.333c0 11.792-9.542 21.334-21.334 21.334h-85.333c-11.792 0-21.334-9.542-21.334-21.334v-21.334h-42.665c-11.792 0-21.334-9.542-21.334-21.334v-63.999c0-11.77-9.562-21.334-21.334-21.334s-21.334 9.562-21.334 21.334v63.999c0 11.792-9.542 21.334-21.334 21.334h-63.999c-11.792 0-21.334-9.542-21.334-21.334v-213.33c0-11.792 9.542-21.334 21.334-21.334h469.326c11.792 0 21.334 9.542 21.334 21.334v255.996c0.004 11.794-9.536 21.336-21.328 21.336z" />
<glyph unicode="&#xe90f;" glyph-name="Pointer1" d="M262.88 347.968c-136.864 139.712-136.864 367.040 0 506.752 66.528 67.904 155.008 105.28 249.12 105.28 0.032 0 0.032 0 0.032 0 94.112 0 182.592-37.408 249.088-105.312 136.832-139.712 136.832-367.040 0.032-506.752l-45.76 44.768c112.672 115.008 112.672 302.176 0 417.184-54.336 55.552-126.592 86.112-203.36 86.112h-0.032c-76.768 0-149.024-30.592-203.424-86.080-112.672-115.008-112.672-302.176 0-417.184l-45.696-44.768zM512-60.384l-187.136 299.424 54.272 33.92 132.864-212.576 132.864 212.576 54.272-33.92zM512 416c-105.888 0-192 86.112-192 192s86.112 192 192 192 192-86.112 192-192-86.112-192-192-192zM512 736c-70.592 0-128-57.408-128-128s57.408-128 128-128 128 57.408 128 128-57.408 128-128 128z" />
<glyph unicode="&#xe910;" glyph-name="back-arrow" d="M1024 512h-780.8l358.4 358.4-89.6 89.6-512-512 512-512 89.6 89.6-358.4 358.4h780.8v128z" />
<glyph unicode="&#xe911;" glyph-name="vision" d="M459.936 473.744h102.992v-32h-102.992v32zM459.936 650.656h102.992v-32h-102.992v32zM770.032 16c-116.848 0-216.4 94.192-221.952 209.968l-0.016 9.312v485.088c0 44.704 17.648 85.872 49.68 115.872 32.048 30.016 74.096 45.504 118.032 43.6 70.8-3.808 131.904-55.92 148.752-126.72 12.976-48.576 127.472-479.248 127.472-516.144 0-121.84-99.584-220.976-221.968-220.976zM708.48 848c-33.12 0-64.528-12.336-88.848-35.12-25.52-23.888-39.568-56.752-39.568-92.512v-493.648c4.72-98.208 89.936-178.72 189.968-178.72 104.752 0 189.968 84.768 189.968 188.976-0.112 25.056-77.648 325.088-126.48 508.32-13.696 57.52-62.688 99.536-119.28 102.592-1.92 0.080-3.84 0.112-5.76 0.112zM253.968 16c-122.384 0-221.968 99.136-221.968 220.976 0 36.896 114.496 467.568 127.552 516.56 16.736 70.384 77.84 122.496 148.48 126.304 44.224 1.856 86.16-13.568 118.208-43.584 32.032-30 49.68-71.168 49.68-115.872v-493.664c-5.552-116.528-105.104-210.72-221.952-210.72zM315.408 848c-1.936 0-3.872-0.032-5.824-0.128-56.4-3.040-105.408-45.056-119.008-102.16-48.928-183.648-126.464-483.68-126.576-508.736 0-104.208 85.216-188.976 189.968-188.976 100.016 0 185.248 80.512 189.984 179.488l-0.016 7.776v485.104c0 35.76-14.048 68.624-39.568 92.512-24.304 22.768-55.696 35.12-88.96 35.12zM255.68 16.16c-122.304 0-221.808 99.056-221.808 220.816s99.504 220.816 221.808 220.816 221.808-99.056 221.808-220.816-99.504-220.816-221.808-220.816zM255.68 425.792c-104.656 0-189.808-84.704-189.808-188.816s85.152-188.816 189.808-188.816 189.808 84.704 189.808 188.816c0 104.112-85.152 188.816-189.808 188.816zM770.192 16.16c-122.304 0-221.808 99.056-221.808 220.816s99.504 220.816 221.808 220.816 221.808-99.056 221.808-220.816-99.504-220.816-221.808-220.816zM770.192 425.792c-104.656 0-189.808-84.704-189.808-188.816s85.152-188.816 189.808-188.816 189.808 84.704 189.808 188.816c0 104.112-85.152 188.816-189.808 188.816zM770.192 84.432c-84.48 0-153.2 68.432-153.2 152.544s68.72 152.544 153.2 152.544 153.2-68.432 153.2-152.544c0-84.112-68.72-152.544-153.2-152.544zM770.192 357.52c-66.832 0-121.2-54.064-121.2-120.544s54.368-120.544 121.2-120.544 121.2 54.080 121.2 120.544-54.368 120.544-121.2 120.544zM255.68 84.432c-84.48 0-153.2 68.432-153.2 152.544s68.72 152.544 153.2 152.544 153.2-68.432 153.2-152.544c0-84.112-68.72-152.544-153.2-152.544zM255.68 357.52c-66.832 0-121.2-54.064-121.2-120.544s54.368-120.544 121.2-120.544 121.2 54.080 121.2 120.544-54.368 120.544-121.2 120.544z" />
<glyph unicode="&#xe919;" glyph-name="right-arrow11" d="M320.695-2.878c-6.35-6.35-14.288-9.526-23.020-9.526s-16.67 3.175-23.020 9.526c-12.701 12.701-12.701 33.34 0 46.040l404.837 404.837-404.837 404.837c-12.701 12.701-12.701 33.34 0 46.040s33.34 12.701 46.040 0l427.857-427.857c12.701-12.701 12.701-33.34 0-46.040l-427.857-427.857z" />
<glyph unicode="&#xe91a;" glyph-name="left-arrow1" d="M703.305-2.878c6.35-6.35 14.288-9.526 23.020-9.526s16.67 3.175 23.020 9.526c12.701 12.701 12.701 33.34 0 46.040l-404.837 404.837 404.837 404.837c12.701 12.701 12.701 33.34 0 46.040s-33.34 12.701-46.040 0l-428.651-427.857c-12.701-12.701-12.701-33.34 0-46.040l428.651-427.857z" />
<glyph unicode="&#xe91d;" glyph-name="coastal-shipping1" d="M136.533 381.696c0-0.037 0-0.080 0-0.123 0-2.316 0.426-4.532 1.203-6.574l-0.042 0.127 15.906-39.168 337.152 158.566c6.184 2.905 13.423 4.623 21.059 4.676h0.326c7.614-0.008 14.831-1.699 21.303-4.721l-0.311 0.13 337.271-158.652 15.974 39.356c0.701 1.844 1.107 3.976 1.107 6.203 0 4.577-1.714 8.754-4.536 11.923l0.016-0.018c-1.417 1.554-3.117 2.823-5.022 3.73l-0.098 0.042-82.671 38.861c-0.046-0.004-0.1-0.006-0.154-0.006s-0.108 0.002-0.161 0.006h0.007l-276.087 129.929c-1.080 0.387-2.336 0.67-3.638 0.797l-0.065 0.005c-0.885 0.306-1.924 0.545-2.998 0.675l-0.074 0.007c-2.476-0.008-4.822-0.554-6.93-1.528l0.103 0.043-29.542-13.926h-0.154l-246.34-116.002c-0.171 0-0.358-0.102-0.529-0.171l-82.432-38.758c-5.755-2.853-9.641-8.687-9.643-15.428v0zM785.067 738.133h-546.133v-259.584l152.849 71.851h-67.516c-18.851 0-34.133 15.282-34.133 34.133v0 68.267c0 18.851 15.282 34.133 34.133 34.133v0h375.467c18.851 0 34.133-15.282 34.133-34.133v0-68.267c0-18.851-15.282-34.133-34.133-34.133v0h-67.533l152.866-71.851zM187.733 772.13h33.502c0.222 0 0.41 0.119 0.631 0.119h613.973c0.102 0 0.375 0 0.461 0.188l-21.009 50.893-606.14 0.137zM699.733 652.8h-375.467v-68.267h140.117l26.351 12.39c6.239 2.937 13.549 4.659 21.259 4.676h0.006c7.652-0.003 14.906-1.707 21.404-4.755l-0.309 0.13 26.453-12.442h140.186zM610.372 925.867h-196.745c-0.019 0-0.042 0-0.065 0-6.624 0-12.361-3.801-15.148-9.341l-0.044-0.097-29.423-58.829h286.106l-29.423 58.829c-2.832 5.637-8.568 9.438-15.193 9.438-0.023 0-0.046 0-0.068 0h0.004zM967.049-29.867c-19.49 0-28.843 10.121-43.725 27.989s-33.553 40.277-69.99 40.277-55.091-22.34-69.973-40.26-24.354-28.006-43.895-28.006c-5.676 0.002-11.074 1.195-15.956 3.343l0.255-0.1 133.871 330.854-328.567 154.522v-215.552c0-9.426-7.641-17.067-17.067-17.067s-17.067 7.641-17.067 17.067v0 215.569l-328.585-154.539 133.854-330.786c-4.645-2.092-10.070-3.311-15.779-3.311-0.015 0-0.030 0-0.044 0h0.002c-19.49 0-28.843 10.121-43.725 27.989s-33.553 40.277-69.99 40.277-55.040-22.34-69.973-40.277-24.252-27.989-43.742-27.989c-9.426 0-17.067-7.641-17.067-17.067s7.641-17.067 17.067-17.067v0c36.42 0 55.023 22.34 69.973 40.26s24.252 28.006 43.742 28.006 28.86-10.121 43.742-28.006 33.553-40.26 69.973-40.26 55.057 22.34 69.973 40.277 24.303 27.989 43.776 27.989 28.86-10.121 43.742-27.989 33.519-40.277 69.939-40.277 55.057 22.34 69.973 40.277 24.32 27.989 43.81 27.989 29.013-10.121 43.844-28.006 33.57-40.26 70.025-40.26 55.091 22.34 69.973 40.26 24.354 28.006 43.895 28.006 28.86-10.121 43.742-28.006 33.553-40.26 69.973-40.26c9.426 0 17.067 7.641 17.067 17.067s-7.641 17.067-17.067 17.067v0zM494.933 157.867c0 9.426 7.641 17.067 17.067 17.067s17.067-7.641 17.067-17.067v0-17.067c0-9.426-7.641-17.067-17.067-17.067s-17.067 7.641-17.067 17.067v0zM307.729-22.699c0.495 0.341 0.956 0.819 1.451 1.178-0.478-0.358-0.956-0.836-1.451-1.178zM316.706-14.746c0.853 0.87 1.707 1.707 2.594 2.714-0.853-0.922-1.758-1.86-2.594-2.714zM468.105-1.877c-14.95 17.937-33.553 40.277-69.973 40.277v0c36.42 0 55.023-22.34 69.973-40.277s24.269-27.989 43.725-27.989v0c-19.473 0-28.843 10.121-43.725 27.989zM555.605-1.877c-7.576-11.432-18.042-20.397-30.372-25.964l-0.45-0.182c12.736 5.749 23.166 14.694 30.555 25.831l0.165 0.264c8.744 11.418 18.981 21.128 30.542 29.046l0.451 0.292c-11.967-8.2-22.169-17.886-30.659-28.955l-0.232-0.315zM625.63 38.4v0c36.403 0 55.023-22.34 69.973-40.26-14.916 17.92-33.536 40.26-69.973 40.26zM704.444-11.964c0.905-0.99 1.809-1.911 2.697-2.816-0.87 0.887-1.809 1.843-2.697 2.816zM716.1-22.716c-0.512 0.358-1.024 0.87-1.519 1.263 0.512-0.393 1.007-0.905 1.519-1.263z" />
<glyph unicode="&#xe91e;" glyph-name="Value-Added-Services" d="M585.728 247.296c-38.912 0-71.68-32.768-71.68-71.68s32.768-71.68 71.68-71.68c38.912 0 71.68 32.768 71.68 71.68s-30.72 71.68-71.68 71.68zM585.728 132.608c-22.528 0-43.008 18.432-43.008 43.008s18.432 43.008 43.008 43.008c22.528 0 43.008-18.432 43.008-43.008s-20.48-43.008-43.008-43.008zM135.168 224.768c-28.672-28.672-28.672-73.728 0-102.4 14.336-14.336 30.72-20.48 51.2-20.48 18.432 0 36.864 8.192 51.2 20.48 28.672 28.672 28.672 73.728 0 102.4s-75.776 28.672-102.4 0zM215.040 144.896c-16.384-16.384-43.008-16.384-59.392 0s-16.384 43.008 0 59.392c8.192 8.192 18.432 12.288 28.672 12.288 12.288 0 22.528-4.096 30.72-12.288 16.384-16.384 16.384-43.008 0-59.392zM962.56 468.48c-34.816 0-169.984 0-165.888 0-8.192 0-14.336-2.048-20.48-6.144v303.104c0 8.192-6.144 14.336-14.336 14.336s-14.336-6.144-14.336-14.336v-442.368h-51.2c-2.048 6.144-2.048 10.24-6.144 16.384l-49.152 88.064c-4.096 6.144-8.192 10.24-14.336 12.288l-75.776 352.256v2.048c-10.24 30.72-36.864 49.152-69.632 49.152h-387.072c-40.96 0-71.68-32.768-71.68-73.728v-372.736c-2.048 0-2.048-2.048-2.048-4.096v-190.464c0-24.576 18.432-43.008 40.96-45.056 4.096-26.624 16.384-51.2 34.816-71.68 22.528-22.528 55.296-36.864 88.064-36.864s63.488 12.288 88.064 36.864c18.432 18.432 30.72 43.008 34.816 69.632h155.648c8.192-59.392 61.44-106.496 122.88-106.496 67.584 0 124.928 55.296 124.928 124.928 0 20.48-4.096 38.912-12.288 55.296v0h49.152c2.048-6.144 8.192-10.24 14.336-10.24h202.752c2.048 0 4.096 0 6.144 2.048 18.432 4.096 32.768 20.48 32.768 40.96v165.888c0 22.528-18.432 40.96-40.96 40.96zM894.976 439.808v-22.528h-30.72v22.528h30.72zM784.384 427.52c0 6.144 6.144 12.288 12.288 12.288h38.912v-36.864c0-8.192 6.144-14.336 14.336-14.336h59.392c8.192 0 14.336 6.144 14.336 14.336v36.864h38.912c6.144 0 12.288-6.144 12.288-12.288v-165.888c0-6.144-6.144-12.288-12.288-12.288h-165.888c-6.144 0-12.288 6.144-12.288 12.288v165.888zM94.208 816.64h387.072c18.432 0 34.816-12.288 40.96-28.672l73.728-348.16h-22.528c-10.24 0-18.432-4.096-24.576-14.336l-32.768-53.248-49.152 49.152 30.72 30.72c6.144 6.144 6.144 14.336 0 20.48s-14.336 6.144-20.48 0l-81.92-81.92c-6.144-6.144-6.144-14.336 0-20.48s14.336-6.144 20.48 0l28.672 28.672 55.296-55.296-26.624-45.056h-145.408l-45.056 96.256v43.008c0 16.384-14.336 30.72-30.72 30.72h-100.352v88.064c0 24.576-20.48 45.056-45.056 45.056h-30.72c-8.192 0-14.336-6.144-14.336-14.336v-182.272h-10.24v366.592c0 24.576 18.432 45.056 43.008 45.056zM90.112 409.088v167.936h14.336c8.192 0 16.384-8.192 16.384-16.384v-102.4c0-8.192 6.144-14.336 14.336-14.336h116.736v-32.768h-161.792zM51.2 202.24v176.128h20.48c2.048 0 4.096 0 4.096 0h182.272l45.056-98.304c2.048-4.096 6.144-6.144 10.24-8.192 2.048-2.048 4.096-2.048 8.192-2.048v0l161.792 2.048c2.048 0 4.096 0 6.144 2.048 0 0 0 0 2.048 2.048 2.048 0 2.048 2.048 4.096 4.096 0 0 0 0 0 0l36.864 61.44c2.048 2.048 2.048 2.048 2.048 4.096l38.912 65.536h40.96l49.152-86.016c2.048-4.096 2.048-6.144 2.048-10.24v-45.056c-22.528 18.432-51.2 30.72-81.92 30.72-63.488 0-116.736-49.152-122.88-110.592h-153.6c-2.048 28.672-14.336 55.296-34.816 75.776-22.528 22.528-55.296 36.864-88.064 36.864s-63.488-12.288-88.064-36.864c-20.48-20.48-32.768-47.104-34.816-73.728-6.144-4.096-10.24 2.048-10.24 10.24zM251.904 108.032c-18.432-18.432-40.96-26.624-67.584-26.624-24.576 0-49.152 10.24-67.584 26.624-18.432 18.432-26.624 40.96-26.624 67.584 0 24.576 10.24 49.152 26.624 67.584 18.432 18.432 40.96 26.624 67.584 26.624 24.576 0 49.152-10.24 67.584-26.624 18.432-18.432 26.624-40.96 26.624-67.584 0 0 0-2.048 0-2.048s0 0 0 0v0c0-26.624-10.24-49.152-26.624-65.536zM585.728 79.36c-51.2 0-92.16 40.96-94.208 92.16 0 2.048 0 0 0 2.048 0 51.2 43.008 94.208 94.208 94.208 34.816 0 65.536-18.432 81.92-49.152 8.192-14.336 12.288-28.672 12.288-45.056 0-51.2-43.008-94.208-94.208-94.208zM696.32 292.352h49.152v-30.72h-49.152v30.72z" />
</font>
</defs>
</svg>
